<svg width="65" height="56" viewBox="0 0 65 56" fill="none" xmlns="http://www.w3.org/2000/svg">
<path d="M65 38C65 47.9411 56.9411 56 47 56L20 56C17.2386 56 15 53.7614 15 51L15 17C15 11.4772 19.4772 7 25 7L60 7C62.7614 7 65 9.23858 65 12L65 38Z" fill="#E8F5E9"/>
<path d="M26.9164 19.0109C26.6044 19.0109 26.3507 18.7576 26.3507 18.4452V17.4839C26.3507 17.1719 26.604 16.9182 26.9164 16.9182C27.2284 16.9182 27.4821 17.1715 27.4821 17.4839V18.4452C27.4821 18.7576 27.2284 19.0109 26.9164 19.0109Z" fill="#103E13"/>
<path d="M24.5381 19.0109C24.2261 19.0109 23.9724 18.7576 23.9724 18.4452V17.4839C23.9724 17.1719 24.2257 16.9182 24.5381 16.9182C24.8501 16.9182 25.1038 17.1715 25.1038 17.4839V18.4452C25.1034 18.7576 24.8505 19.0109 24.5381 19.0109Z" fill="#103E13"/>
<path d="M22.16 19.0109C21.848 19.0109 21.5944 18.7576 21.5944 18.4452V17.4839C21.5944 17.1719 21.8476 16.9182 22.16 16.9182C22.4721 16.9182 22.7257 17.1715 22.7257 17.4839V18.4452C22.7257 18.7576 22.4725 19.0109 22.16 19.0109Z" fill="#103E13"/>
<path d="M26.9164 22.942C26.6044 22.942 26.3507 22.6888 26.3507 22.3763V21.4154C26.3507 21.1034 26.604 20.8497 26.9164 20.8497C27.2284 20.8497 27.4821 21.103 27.4821 21.4154V22.3763C27.4821 22.6888 27.2284 22.942 26.9164 22.942Z" fill="#103E13"/>
<path d="M24.5381 22.942C24.2261 22.942 23.9724 22.6888 23.9724 22.3763V21.4154C23.9724 21.1034 24.2257 20.8497 24.5381 20.8497C24.8501 20.8497 25.1038 21.103 25.1038 21.4154V22.3763C25.1034 22.6888 24.8505 22.942 24.5381 22.942Z" fill="#103E13"/>
<path d="M22.16 22.942C21.848 22.942 21.5944 22.6888 21.5944 22.3763V21.4154C21.5944 21.1034 21.8476 20.8497 22.16 20.8497C22.4721 20.8497 22.7257 21.103 22.7257 21.4154V22.3763C22.7257 22.6888 22.4725 22.942 22.16 22.942Z" fill="#103E13"/>
<path d="M26.9164 26.8733C26.6044 26.8733 26.3507 26.6201 26.3507 26.3076V25.3463C26.3507 25.0343 26.604 24.7806 26.9164 24.7806C27.2284 24.7806 27.4821 25.0339 27.4821 25.3463V26.3076C27.4821 26.6201 27.2284 26.8733 26.9164 26.8733Z" fill="#103E13"/>
<path d="M24.5381 26.8733C24.2261 26.8733 23.9724 26.6201 23.9724 26.3076V25.3463C23.9724 25.0343 24.2257 24.7806 24.5381 24.7806C24.8501 24.7806 25.1038 25.0339 25.1038 25.3463V26.3076C25.1034 26.6201 24.8505 26.8733 24.5381 26.8733Z" fill="#103E13"/>
<path d="M22.16 26.8733C21.848 26.8733 21.5944 26.6201 21.5944 26.3076V25.3463C21.5944 25.0343 21.8476 24.7806 22.16 24.7806C22.4721 24.7806 22.7257 25.0339 22.7257 25.3463V26.3076C22.7257 26.6201 22.4725 26.8733 22.16 26.8733Z" fill="#103E13"/>
<path d="M26.9164 30.8037C26.6044 30.8037 26.3507 30.5505 26.3507 30.2381V29.2767C26.3507 28.9647 26.604 28.7111 26.9164 28.7111C27.2284 28.7111 27.4821 28.9643 27.4821 29.2767V30.2381C27.4821 30.5505 27.2284 30.8037 26.9164 30.8037Z" fill="#103E13"/>
<path d="M24.5381 30.8037C24.2261 30.8037 23.9724 30.5505 23.9724 30.2381V29.2767C23.9724 28.9647 24.2257 28.7111 24.5381 28.7111C24.8501 28.7111 25.1038 28.9643 25.1038 29.2767V30.2381C25.1034 30.5505 24.8505 30.8037 24.5381 30.8037Z" fill="#103E13"/>
<path d="M22.16 30.8037C21.848 30.8037 21.5944 30.5505 21.5944 30.2381V29.2767C21.5944 28.9647 21.8476 28.7111 22.16 28.7111C22.4721 28.7111 22.7257 28.9643 22.7257 29.2767V30.2381C22.7257 30.5505 22.4725 30.8037 22.16 30.8037Z" fill="#103E13"/>
<path d="M26.9164 34.735C26.6044 34.735 26.3507 34.4817 26.3507 34.1693V33.2084C26.3507 32.8964 26.604 32.6427 26.9164 32.6427C27.2284 32.6427 27.4821 32.896 27.4821 33.2084V34.1693C27.4821 34.4813 27.2284 34.735 26.9164 34.735Z" fill="#103E13"/>
<path d="M24.5381 34.735C24.2261 34.735 23.9724 34.4817 23.9724 34.1693V33.2084C23.9724 32.8964 24.2257 32.6427 24.5381 32.6427C24.8501 32.6427 25.1038 32.896 25.1038 33.2084V34.1693C25.1034 34.4813 24.8505 34.735 24.5381 34.735Z" fill="#103E13"/>
<path d="M22.16 34.735C21.848 34.735 21.5944 34.4817 21.5944 34.1693L21.5948 33.2084C21.5948 32.8964 21.848 32.6427 22.1604 32.6427C22.4725 32.6427 22.7261 32.896 22.7261 33.2084V34.1693C22.7257 34.4813 22.4725 34.735 22.16 34.735Z" fill="#103E13"/>
<path d="M6.50049 38.6471C6.50049 38.9592 6.75374 39.2128 7.06616 39.2128H41.5139C41.8259 39.2128 42.0796 38.9596 42.0796 38.6471C42.0796 38.3351 41.8263 38.0815 41.5139 38.0815H40.4682V21.8402C40.4682 21.5281 40.215 21.2745 39.9025 21.2745L30.6668 21.2749V9.56576C30.6668 9.36774 30.5635 9.18471 30.3946 9.08214C30.2262 8.97919 30.0156 8.97287 29.8404 9.06399L19.3401 14.531C19.1527 14.6284 19.0359 14.8217 19.0359 15.0327V25.2604H8.87389C8.56187 25.2604 8.30822 25.5137 8.30822 25.8261V38.0816H7.0649C6.75288 38.0812 6.50049 38.3347 6.50049 38.6471ZM30.667 29.8422H39.3374V38.0819L30.667 38.0815V29.8422ZM30.667 25.9113H39.3374V28.7113L30.667 28.7109V25.9113ZM30.667 22.4056H39.3374V24.7808H30.667V22.4056ZM20.1667 15.3762L29.5353 10.4982V38.081H20.1667V15.3762ZM12.2359 33.5635C12.2359 32.3895 13.166 31.4341 14.3096 31.4341C15.4532 31.4341 16.3837 32.3891 16.3837 33.5635V38.0817H12.2359V33.5635ZM9.43953 26.3916H19.0358V38.0815H17.515V33.5633C17.515 31.7657 16.0776 30.303 14.3096 30.303C12.5424 30.303 11.105 31.7653 11.105 33.5633V38.0815H9.43953V26.3916Z" fill="#103E13"/>
</svg>
